<svg xmlns="http://www.w3.org/2000/svg" version="1.1" xmlns:xlink="http://www.w3.org/1999/xlink" xmlns:svgjs="http://svgjs.dev/svgjs" width="100%" height="100%" viewBox="0 0 1000 600"><rect width="1000" height="600" x="0" y="0" fill="#f3f8ff"/><g><circle r="166.66666666666666" cx="312.2635294596354" cy="334.4857829287686" fill="#ff8080" transform="matrix(0.8585347422208913,0,0,0.8585347422208913,0,12.832326947302164)"/><path d="M330.66446981974303 352.2081522631234L330.66446981974303 352.2081522631234Q329.003454600088 349.04184200065595 322.07390673058956 343.0725685550206L322.07390673058956 343.0725685550206Q303.95845949122656 349.7944895220622 280.6004329648273 344.5519102350259L280.6004329648273 344.5519102350259L280.7821065044771 396.5105425748606L254.62111679490994 391.0862897481746L254.62111679490994 266.0689411063244Q271.6205694335672 261.39733580104456 292.6427933073265 259.91799412103927Q313.66501718108583 258.41269907822686 319.08927000777186 262.14998332245074L319.08927000777186 262.14998332245074Q324.6951963741077 267.18493570703015 336.65969662818554 279.149435961108Q348.62419688226333 291.1139362151858 353.2958021875432 296.5381890418719L353.2958021875432 296.5381890418719Q358.14908103247285 302.5074624875072 352.25766767525874 315.97725778439747Q346.36625431804475 329.42109971848055 332.16976486255544 338.19333634728383L332.16976486255544 338.19333634728383Q351.97218068438053 346.60222589678756 353.65914926684275 348.4708680188995L353.65914926684275 348.4708680188995Q356.09876537071113 352.02647872347364 357.1109465201884 356.62022394033215Q358.14908103247285 361.1880157943836 358.14908103247285 364.354326056851Q358.14908103247285 367.54658968212556 357.7597805903662 373.33418958811114Q357.3964335110666 379.12178949409673 357.3964335110666 381.17210515585845L357.3964335110666 381.17210515585845Q357.3964335110666 383.0407472779704 357.1109465201884 386.8818449734227Q356.8254595293102 390.7229426688751 356.8254595293102 392.591584790987Q356.8254595293102 394.4602269130989 357.3964335110666 397.3410501846882Q357.96740749282304 400.24782681908454 359.2650756331785 401.93479540154664Q360.56274377353407 403.59581062120174 363.1840334170522 405.46445274331364Q365.80532306057034 407.3330948654256 369.9059543840938 408.6567163685882L369.9059543840938 408.6567163685882Q355.16444430965515 411.64135309140596 345.3540731685674 403.88129761207995Q335.54370202747975 396.121242132754 334.6093809664238 381.17210515585845L334.6093809664238 381.17210515585845Q334.6093809664238 380.0561105551527 334.3238939755456 374.2685106491671Q334.0384069846674 368.48091074318154 333.7529199937892 365.8596210996634Q333.467433002911 363.23833145614526 332.74073884431186 359.0338866813934Q331.9880913229057 354.82944190664153 330.66446981974303 352.2081522631234ZM327.4981595572756 283.2760206474385L327.4981595572756 283.2760206474385Q316.4679803642537 272.790862073366 280.41875942517754 280.26543056181373L280.41875942517754 280.26543056181373L280.6004329648273 332.58740998094805Q293.68092781961093 332.7950368834049 304.2439464821048 328.77226564830283Q314.78101178179156 324.74949441320075 320.38693814812734 318.49473397668714Q325.9928645144632 312.2399735401736 329.003454600088 305.31042567067516Q331.9880913229057 298.4068311639838 331.41711734114926 292.41160435554133Q330.8720967221999 286.442330909906 327.4981595572756 283.2760206474385Z " fill="#f3f8ff" transform="matrix(0.8585347422208913,0,0,0.8585347422208913,0,12.832326947302164)"/><path d="M661.8244993802091 259.69532310937973L691.9981170529987 268.3163567301768L691.9981170529987 409.48578227072795L661.8244993802091 403.22954606674676L592.0180743673666 304.5067374508143L592.4371523905997 409.48578227072795L562.2635347178102 403.22954606674676L562.2635347178102 259.69532310937973L592.0180743673666 268.3163567301768L661.8244993802091 365.931601998993L661.8244993802091 259.69532310937973ZM764.8578248065402 278.88310974455646L724.3269931309876 278.88310974455646L707.0849258893935 259.48578409776314L829.3060379509012 259.48578409776314L846.5481051924953 278.88310974455646L794.6123644560965 278.88310974455646L795.0314424793297 409.48578227072795L764.8578248065402 403.22954606674676L764.8578248065402 278.88310974455646ZM861.6349140288901 259.69532310937973L891.3595195339299 268.3163567301768L936.6199460431142 378.02499638372217L989.0046989472627 259.69532310937973L1018.759238596819 268.3163567301768L1019.1783166200523 409.48578227072795L989.0046989472627 403.22954606674676L989.0046989472627 330.6093114693386L953.442935261475 409.48578227072795L925.4245759938847 403.22954606674676L925.6341150055013 402.8104680435136L925.4245759938847 403.0200070551302L891.3595195339299 318.3063780729928L891.8085317016796 409.48578227072795L861.6349140288901 403.22954606674676L861.6349140288901 259.69532310937973Z " fill="#ff6d60" transform="matrix(0.8585347422208913,0,0,0.8585347422208913,0,12.832326947302164)"/></g></svg>